<mxfile host="app.diagrams.net" modified="2023-07-25T09:41:46.935Z" agent="Mozilla/5.0 (Windows NT 10.0; Win64; x64) AppleWebKit/537.36 (KHTML, like Gecko) Chrome/114.0.0.0 Safari/537.36" etag="_yNvUnk8nRPpV2soXtjt" version="21.6.5" type="github">
  <diagram name="Page-1" id="ClXwk1DnZw9n2By0QG5u">
    <mxGraphModel dx="1434" dy="796" grid="1" gridSize="10" guides="1" tooltips="1" connect="1" arrows="1" fold="1" page="1" pageScale="1" pageWidth="850" pageHeight="1100" math="0" shadow="0">
      <root>
        <mxCell id="0" />
        <mxCell id="1" parent="0" />
        <mxCell id="uH3RwXhgn2cNPjVPS3Ot-1" value="" style="rounded=1;whiteSpace=wrap;html=1;" vertex="1" parent="1">
          <mxGeometry x="380" y="150" width="120" height="60" as="geometry" />
        </mxCell>
        <mxCell id="uH3RwXhgn2cNPjVPS3Ot-2" value="" style="shape=cylinder3;whiteSpace=wrap;html=1;boundedLbl=1;backgroundOutline=1;size=15;" vertex="1" parent="1">
          <mxGeometry x="120" y="260" width="60" height="80" as="geometry" />
        </mxCell>
        <mxCell id="uH3RwXhgn2cNPjVPS3Ot-3" value="" style="shape=tape;whiteSpace=wrap;html=1;" vertex="1" parent="1">
          <mxGeometry x="590" y="230" width="120" height="100" as="geometry" />
        </mxCell>
        <mxCell id="uH3RwXhgn2cNPjVPS3Ot-4" value="" style="swimlane;startSize=0;" vertex="1" parent="1">
          <mxGeometry x="340" y="320" width="130" height="150" as="geometry" />
        </mxCell>
        <mxCell id="uH3RwXhgn2cNPjVPS3Ot-5" value="" style="endArrow=classic;html=1;rounded=0;" edge="1" parent="1">
          <mxGeometry relative="1" as="geometry">
            <mxPoint x="200" y="330" as="sourcePoint" />
            <mxPoint x="300" y="330" as="targetPoint" />
            <Array as="points" />
          </mxGeometry>
        </mxCell>
        <mxCell id="uH3RwXhgn2cNPjVPS3Ot-6" value="Label" style="edgeLabel;resizable=0;html=1;align=center;verticalAlign=middle;" connectable="0" vertex="1" parent="uH3RwXhgn2cNPjVPS3Ot-5">
          <mxGeometry relative="1" as="geometry" />
        </mxCell>
      </root>
    </mxGraphModel>
  </diagram>
</mxfile>
